<?xml version="1.0" encoding="UTF-8" standalone="no"?>
<!DOCTYPE svg PUBLIC "-//W3C//DTD SVG 1.1//EN"
 "http://www.w3.org/Graphics/SVG/1.1/DTD/svg11.dtd">
<!-- Generated by graphviz version 2.38.0 (20140413.2041)
 -->
<!-- Title: SchemaCrawler_Diagram Pages: 1 -->
<svg width="834pt"
    height="362pt"
    viewBox="0.00 0.00 834.00 362.00"
    xmlns="http://www.w3.org/2000/svg">
<g id="graph0" class="graph" transform="scale(1 1) rotate(0) translate(4 358)">
<title>SchemaCrawler_Diagram</title>
<polygon fill="white" stroke="none" points="-4,4 -4,-358 830,-358 830,4 -4,4"/>
<text text-anchor="start" x="670.801" y="-44.6" font-family="Helvetica,sans-Serif" font-size="8.00" fill="#555555">Generated by:</text>
<text text-anchor="start" x="725.365" y="-44.6" font-family="Helvetica,sans-Serif" font-size="8.00" fill="#555555">SchemaCrawler 12.04.02</text>
<text text-anchor="start" x="670.426" y="-32.6" font-family="Helvetica,sans-Serif" font-size="8.00" fill="#555555">Generated on:</text>
<text text-anchor="start" x="725.5" y="-32.6" font-family="Helvetica,sans-Serif" font-size="8.00" fill="#555555">Feb 21, 2015 12:39 PM</text>
<text text-anchor="start" x="685.031" y="-20.6" font-family="Helvetica,sans-Serif" font-size="8.00" fill="#555555">Database:</text>
<text text-anchor="start" x="725.5" y="-20.6" font-family="Helvetica,sans-Serif" font-size="8.00" fill="#555555">SQLite &#160;3.7.8</text>
<text text-anchor="start" x="697.945" y="-8.6" font-family="Helvetica,sans-Serif" font-size="8.00" fill="#555555">Driver:</text>
<text text-anchor="start" x="725.5" y="-8.6" font-family="Helvetica,sans-Serif" font-size="8.00" fill="#555555">SQLiteJDBC &#160;native</text>
<polygon fill="none" stroke="#555555" points="667,-4 667,-54 818,-54 818,-4 667,-4"/>
<!-- manual_bf8ae7c6 -->
<g id="node1" class="node"><title>manual_bf8ae7c6</title>
<polygon fill="white" stroke="none" points="497,-62 497,-112 594,-112 594,-62 497,-62"/>
<polygon fill="#fae096" stroke="none" points="498.5,-99 498.5,-111 528.5,-111 528.5,-99 498.5,-99"/>
<text text-anchor="start" x="500.381" y="-103.6" font-family="Helvetica,sans-Serif" font-weight="bold" font-style="italic" font-size="8.00">manual</text>
<polygon fill="#fae096" stroke="none" points="528.5,-99 528.5,-111 593.5,-111 593.5,-99 528.5,-99"/>
<text text-anchor="start" x="569.707" y="-102.6" font-family="Helvetica,sans-Serif" font-size="8.00">[table]</text>
<text text-anchor="start" x="500.5" y="-91.6" font-family="Helvetica,sans-Serif" font-weight="bold" font-style="italic" font-size="8.00">_id</text>
<text text-anchor="start" x="521.5" y="-90.6" font-family="Helvetica,sans-Serif" font-size="8.00"> </text>
<text text-anchor="start" x="530.5" y="-90.6" font-family="Helvetica,sans-Serif" font-size="8.00">INTEGER</text>
<text text-anchor="start" x="500.5" y="-78.6" font-family="Helvetica,sans-Serif" font-size="8.00">title</text>
<text text-anchor="start" x="521.5" y="-78.6" font-family="Helvetica,sans-Serif" font-size="8.00"> </text>
<text text-anchor="start" x="530.025" y="-78.6" font-family="Helvetica,sans-Serif" font-size="8.00">TEXT NOT NULL</text>
<text text-anchor="start" x="500.5" y="-66.6" font-family="Helvetica,sans-Serif" font-size="8.00">isbn</text>
<text text-anchor="start" x="521.5" y="-66.6" font-family="Helvetica,sans-Serif" font-size="8.00"> </text>
<text text-anchor="start" x="530.025" y="-66.6" font-family="Helvetica,sans-Serif" font-size="8.00">TEXT NOT NULL</text>
<polygon fill="none" stroke="#555555" points="497,-62 497,-112 594,-112 594,-62 497,-62"/>
</g>
<!-- product_ed8dccef -->
<g id="node2" class="node"><title>product_ed8dccef</title>
<polygon fill="white" stroke="none" points="694.5,-86 694.5,-136 808.5,-136 808.5,-86 694.5,-86"/>
<polygon fill="#fae096" stroke="none" points="695.5,-123 695.5,-135 742.5,-135 742.5,-123 695.5,-123"/>
<text text-anchor="start" x="697.5" y="-127.6" font-family="Helvetica,sans-Serif" font-weight="bold" font-style="italic" font-size="8.00">product</text>
<polygon fill="#fae096" stroke="none" points="742.5,-123 742.5,-135 807.5,-135 807.5,-123 742.5,-123"/>
<text text-anchor="start" x="783.707" y="-126.6" font-family="Helvetica,sans-Serif" font-size="8.00">[table]</text>
<text text-anchor="start" x="697.32" y="-115.6" font-family="Helvetica,sans-Serif" font-weight="bold" font-style="italic" font-size="8.00">product_id</text>
<text text-anchor="start" x="738.389" y="-114.6" font-family="Helvetica,sans-Serif" font-size="8.00"> </text>
<text text-anchor="start" x="744.5" y="-114.6" font-family="Helvetica,sans-Serif" font-size="8.00">INTEGER</text>
<text text-anchor="start" x="697.5" y="-102.6" font-family="Helvetica,sans-Serif" font-size="8.00">name</text>
<text text-anchor="start" x="738.389" y="-102.6" font-family="Helvetica,sans-Serif" font-size="8.00"> </text>
<text text-anchor="start" x="744.025" y="-102.6" font-family="Helvetica,sans-Serif" font-size="8.00">TEXT NOT NULL</text>
<text text-anchor="start" x="697.5" y="-90.6" font-family="Helvetica,sans-Serif" font-size="8.00">manual_id</text>
<text text-anchor="start" x="738.389" y="-90.6" font-family="Helvetica,sans-Serif" font-size="8.00"> </text>
<text text-anchor="start" x="744.5" y="-90.6" font-family="Helvetica,sans-Serif" font-size="8.00">INTEGER</text>
<polygon fill="none" stroke="#555555" points="694.5,-86 694.5,-136 808.5,-136 808.5,-86 694.5,-86"/>
</g>
<!-- product_ed8dccef&#45;&gt;manual_bf8ae7c6 -->
<g id="edge1" class="edge"><title>product_ed8dccef:manual_id_4c072df5.start:w&#45;&gt;manual_bf8ae7c6:_id_acbbef92.end:e</title>
<path fill="none" stroke="black" d="M679.702,-93C649.312,-93 635.646,-93 602.791,-93"/>
<polygon fill="black" stroke="black" points="686.5,-93.0001 694.5,-96.6 690.5,-93 694.5,-93 694.5,-93 694.5,-93 690.5,-93 694.5,-89.4 686.5,-93.0001 686.5,-93.0001"/>
<ellipse fill="none" stroke="black" cx="683.3" cy="-93.0001" rx="3.2" ry="3.2"/>
<polygon fill="black" stroke="black" points="595.3,-97 595.3,-89 596.9,-89 596.9,-97 595.3,-97"/>
<polyline fill="none" stroke="black" points="594.5,-93 598.5,-93 "/>
<polygon fill="black" stroke="black" points="599.3,-97.0001 599.3,-89.0001 600.9,-89.0001 600.9,-97.0001 599.3,-97.0001"/>
<polyline fill="none" stroke="black" points="598.5,-93 602.5,-93.0001 "/>
</g>
<!-- person_c4e39b55 -->
<g id="node3" class="node"><title>person_c4e39b55</title>
<polygon fill="white" stroke="none" points="458.5,-228 458.5,-350 632.5,-350 632.5,-228 458.5,-228"/>
<polygon fill="#fae096" stroke="none" points="459.5,-337 459.5,-349 550.5,-349 550.5,-337 459.5,-337"/>
<text text-anchor="start" x="461.5" y="-341.6" font-family="Helvetica,sans-Serif" font-weight="bold" font-style="italic" font-size="8.00">person</text>
<polygon fill="#fae096" stroke="none" points="550.5,-337 550.5,-349 631.5,-349 631.5,-337 550.5,-337"/>
<text text-anchor="start" x="607.707" y="-340.6" font-family="Helvetica,sans-Serif" font-size="8.00">[table]</text>
<text text-anchor="start" x="461.5" y="-329.6" font-family="Helvetica,sans-Serif" font-weight="bold" font-style="italic" font-size="8.00">_id</text>
<text text-anchor="start" x="546.389" y="-328.6" font-family="Helvetica,sans-Serif" font-size="8.00"> </text>
<text text-anchor="start" x="552.5" y="-328.6" font-family="Helvetica,sans-Serif" font-size="8.00">INTEGER</text>
<text text-anchor="start" x="461.5" y="-316.6" font-family="Helvetica,sans-Serif" font-size="8.00">first_name</text>
<text text-anchor="start" x="546.389" y="-316.6" font-family="Helvetica,sans-Serif" font-size="8.00"> </text>
<text text-anchor="start" x="552.5" y="-316.6" font-family="Helvetica,sans-Serif" font-size="8.00">TEXT NOT NULL</text>
<text text-anchor="start" x="461.5" y="-304.6" font-family="Helvetica,sans-Serif" font-size="8.00">last_name</text>
<text text-anchor="start" x="546.389" y="-304.6" font-family="Helvetica,sans-Serif" font-size="8.00"> </text>
<text text-anchor="start" x="552.5" y="-304.6" font-family="Helvetica,sans-Serif" font-size="8.00">TEXT NOT NULL</text>
<text text-anchor="start" x="461.5" y="-292.6" font-family="Helvetica,sans-Serif" font-size="8.00">Age</text>
<text text-anchor="start" x="546.389" y="-292.6" font-family="Helvetica,sans-Serif" font-size="8.00"> </text>
<text text-anchor="start" x="552.398" y="-292.6" font-family="Helvetica,sans-Serif" font-size="8.00">INTEGER NOT NULL</text>
<text text-anchor="start" x="461.5" y="-280.6" font-family="Helvetica,sans-Serif" font-size="8.00">birth_date</text>
<text text-anchor="start" x="546.389" y="-280.6" font-family="Helvetica,sans-Serif" font-size="8.00"> </text>
<text text-anchor="start" x="552.5" y="-280.6" font-family="Helvetica,sans-Serif" font-size="8.00">INTEGER</text>
<text text-anchor="start" x="461.5" y="-268.6" font-family="Helvetica,sans-Serif" font-size="8.00">has_blue_eyes</text>
<text text-anchor="start" x="546.389" y="-268.6" font-family="Helvetica,sans-Serif" font-size="8.00"> </text>
<text text-anchor="start" x="552.398" y="-268.6" font-family="Helvetica,sans-Serif" font-size="8.00">INTEGER NOT NULL</text>
<text text-anchor="start" x="461.5" y="-256.6" font-family="Helvetica,sans-Serif" font-size="8.00">height</text>
<text text-anchor="start" x="546.389" y="-256.6" font-family="Helvetica,sans-Serif" font-size="8.00"> </text>
<text text-anchor="start" x="552.5" y="-256.6" font-family="Helvetica,sans-Serif" font-size="8.00">REAL</text>
<text text-anchor="start" x="461.5" y="-244.6" font-family="Helvetica,sans-Serif" font-size="8.00">gender</text>
<text text-anchor="start" x="546.389" y="-244.6" font-family="Helvetica,sans-Serif" font-size="8.00"> </text>
<text text-anchor="start" x="552.398" y="-244.6" font-family="Helvetica,sans-Serif" font-size="8.00">INTEGER NOT NULL</text>
<text text-anchor="start" x="461.305" y="-232.6" font-family="Helvetica,sans-Serif" font-size="8.00">person__country_code</text>
<text text-anchor="start" x="546.389" y="-232.6" font-family="Helvetica,sans-Serif" font-size="8.00"> </text>
<text text-anchor="start" x="552.5" y="-232.6" font-family="Helvetica,sans-Serif" font-size="8.00">TEXT NOT NULL</text>
<polygon fill="none" stroke="#555555" points="458.5,-228 458.5,-350 632.5,-350 632.5,-228 458.5,-228"/>
</g>
<!-- person_team_e6a22d07 -->
<g id="node4" class="node"><title>person_team_e6a22d07</title>
<polygon fill="white" stroke="none" points="685,-246 685,-296 818,-296 818,-246 685,-246"/>
<polygon fill="#fae096" stroke="none" points="686.5,-283 686.5,-295 736.5,-295 736.5,-283 686.5,-283"/>
<text text-anchor="start" x="688.152" y="-287.6" font-family="Helvetica,sans-Serif" font-weight="bold" font-style="italic" font-size="8.00">person_team</text>
<polygon fill="#fae096" stroke="none" points="736.5,-283 736.5,-295 817.5,-295 817.5,-283 736.5,-283"/>
<text text-anchor="start" x="793.707" y="-286.6" font-family="Helvetica,sans-Serif" font-size="8.00">[table]</text>
<text text-anchor="start" x="688.5" y="-275.6" font-family="Helvetica,sans-Serif" font-weight="bold" font-style="italic" font-size="8.00">_id</text>
<text text-anchor="start" x="729.5" y="-274.6" font-family="Helvetica,sans-Serif" font-size="8.00"> </text>
<text text-anchor="start" x="738.5" y="-274.6" font-family="Helvetica,sans-Serif" font-size="8.00">INTEGER</text>
<text text-anchor="start" x="688.5" y="-262.6" font-family="Helvetica,sans-Serif" font-size="8.00">person_id</text>
<text text-anchor="start" x="729.5" y="-262.6" font-family="Helvetica,sans-Serif" font-size="8.00"> </text>
<text text-anchor="start" x="738.398" y="-262.6" font-family="Helvetica,sans-Serif" font-size="8.00">INTEGER NOT NULL</text>
<text text-anchor="start" x="688.5" y="-250.6" font-family="Helvetica,sans-Serif" font-size="8.00">team_id</text>
<text text-anchor="start" x="729.5" y="-250.6" font-family="Helvetica,sans-Serif" font-size="8.00"> </text>
<text text-anchor="start" x="738.398" y="-250.6" font-family="Helvetica,sans-Serif" font-size="8.00">INTEGER NOT NULL</text>
<polygon fill="none" stroke="#555555" points="685,-246 685,-296 818,-296 818,-246 685,-246"/>
</g>
<!-- person_team_e6a22d07&#45;&gt;person_c4e39b55 -->
<g id="edge2" class="edge"><title>person_team_e6a22d07:person_id_e1dbbe1e.start:w&#45;&gt;person_c4e39b55:_id_286243a1.end:e</title>
<path fill="none" stroke="black" d="M671.289,-269.747C655.297,-283.402 662.189,-322.288 640.582,-329.752"/>
<polygon fill="black" stroke="black" points="677.912,-267.534 686.64,-268.415 681.706,-266.267 685.5,-265 685.5,-265 685.5,-265 681.706,-266.267 684.36,-261.585 677.912,-267.534 677.912,-267.534"/>
<ellipse fill="none" stroke="black" cx="674.877" cy="-268.548" rx="3.20001" ry="3.20001"/>
<polygon fill="black" stroke="black" points="633.901,-334.831 632.68,-326.925 634.262,-326.681 635.482,-334.587 633.901,-334.831"/>
<polyline fill="none" stroke="black" points="632.5,-331 636.453,-330.39 "/>
<polygon fill="black" stroke="black" points="637.854,-334.221 636.633,-326.314 638.215,-326.07 639.435,-333.977 637.854,-334.221"/>
<polyline fill="none" stroke="black" points="636.453,-330.39 640.406,-329.779 "/>
</g>
<!-- team_36425d -->
<g id="node7" class="node"><title>team_36425d</title>
<polygon fill="white" stroke="none" points="455,-133 455,-207 636,-207 636,-133 455,-133"/>
<polygon fill="#fae096" stroke="none" points="456.5,-194 456.5,-206 554.5,-206 554.5,-194 456.5,-194"/>
<text text-anchor="start" x="458.5" y="-198.6" font-family="Helvetica,sans-Serif" font-weight="bold" font-style="italic" font-size="8.00">team</text>
<polygon fill="#fae096" stroke="none" points="554.5,-194 554.5,-206 635.5,-206 635.5,-194 554.5,-194"/>
<text text-anchor="start" x="611.707" y="-197.6" font-family="Helvetica,sans-Serif" font-size="8.00">[table]</text>
<text text-anchor="start" x="458.5" y="-186.6" font-family="Helvetica,sans-Serif" font-weight="bold" font-style="italic" font-size="8.00">_id</text>
<text text-anchor="start" x="550.389" y="-185.6" font-family="Helvetica,sans-Serif" font-size="8.00"> </text>
<text text-anchor="start" x="556.5" y="-185.6" font-family="Helvetica,sans-Serif" font-size="8.00">INTEGER</text>
<text text-anchor="start" x="458.5" y="-173.6" font-family="Helvetica,sans-Serif" font-size="8.00">company_id</text>
<text text-anchor="start" x="550.389" y="-173.6" font-family="Helvetica,sans-Serif" font-size="8.00"> </text>
<text text-anchor="start" x="556.398" y="-173.6" font-family="Helvetica,sans-Serif" font-size="8.00">INTEGER NOT NULL</text>
<text text-anchor="start" x="458.5" y="-161.6" font-family="Helvetica,sans-Serif" font-size="8.00">team__name</text>
<text text-anchor="start" x="550.389" y="-161.6" font-family="Helvetica,sans-Serif" font-size="8.00"> </text>
<text text-anchor="start" x="556.5" y="-161.6" font-family="Helvetica,sans-Serif" font-size="8.00">TEXT NOT NULL</text>
<text text-anchor="start" x="458.5" y="-149.6" font-family="Helvetica,sans-Serif" font-size="8.00">team__country_code</text>
<text text-anchor="start" x="550.389" y="-149.6" font-family="Helvetica,sans-Serif" font-size="8.00"> </text>
<text text-anchor="start" x="556.5" y="-149.6" font-family="Helvetica,sans-Serif" font-size="8.00">TEXT NOT NULL</text>
<text text-anchor="start" x="458.475" y="-137.6" font-family="Helvetica,sans-Serif" font-size="8.00">team__serial_number_id</text>
<text text-anchor="start" x="550.389" y="-137.6" font-family="Helvetica,sans-Serif" font-size="8.00"> </text>
<text text-anchor="start" x="556.398" y="-137.6" font-family="Helvetica,sans-Serif" font-size="8.00">INTEGER NOT NULL</text>
<polygon fill="none" stroke="#555555" points="455,-133 455,-207 636,-207 636,-133 455,-133"/>
</g>
<!-- person_team_e6a22d07&#45;&gt;team_36425d -->
<g id="edge6" class="edge"><title>person_team_e6a22d07:team_id_8eb07c56.start:w&#45;&gt;team_36425d:_id_9c7a26a9.end:e</title>
<path fill="none" stroke="black" d="M671.517,-247.9C657.209,-234.133 664.529,-196.753 644.436,-189.302"/>
<polygon fill="black" stroke="black" points="677.984,-250.259 684.266,-256.382 681.742,-251.629 685.5,-253 685.5,-253 685.5,-253 681.742,-251.629 686.734,-249.618 677.984,-250.259 677.984,-250.259"/>
<ellipse fill="none" stroke="black" cx="674.978" cy="-249.162" rx="3.20001" ry="3.20001"/>
<polygon fill="black" stroke="black" points="636.642,-192.077 637.937,-184.182 639.516,-184.441 638.221,-192.336 636.642,-192.077"/>
<polyline fill="none" stroke="black" points="636.5,-188 640.447,-188.648 "/>
<polygon fill="black" stroke="black" points="640.589,-192.724 641.884,-184.83 643.463,-185.089 642.168,-192.984 640.589,-192.724"/>
<polyline fill="none" stroke="black" points="640.447,-188.648 644.394,-189.295 "/>
</g>
<!-- serial_number_129efff4 -->
<g id="node5" class="node"><title>serial_number_129efff4</title>
<polygon fill="white" stroke="none" points="8,-108 8,-158 162,-158 162,-108 8,-108"/>
<polygon fill="#fae096" stroke="none" points="9,-145 9,-157 96,-157 96,-145 9,-145"/>
<text text-anchor="start" x="11" y="-149.6" font-family="Helvetica,sans-Serif" font-weight="bold" font-style="italic" font-size="8.00">serial_number</text>
<polygon fill="#fae096" stroke="none" points="96,-145 96,-157 161,-157 161,-145 96,-145"/>
<text text-anchor="start" x="137.207" y="-148.6" font-family="Helvetica,sans-Serif" font-size="8.00">[table]</text>
<text text-anchor="start" x="11" y="-137.6" font-family="Helvetica,sans-Serif" font-weight="bold" font-style="italic" font-size="8.00">_id</text>
<text text-anchor="start" x="91.8887" y="-136.6" font-family="Helvetica,sans-Serif" font-size="8.00"> </text>
<text text-anchor="start" x="98" y="-136.6" font-family="Helvetica,sans-Serif" font-size="8.00">INTEGER</text>
<text text-anchor="start" x="10.5879" y="-124.6" font-family="Helvetica,sans-Serif" font-size="8.00">serial_number__part0</text>
<text text-anchor="start" x="91.8887" y="-124.6" font-family="Helvetica,sans-Serif" font-size="8.00"> </text>
<text text-anchor="start" x="97.5254" y="-124.6" font-family="Helvetica,sans-Serif" font-size="8.00">TEXT NOT NULL</text>
<text text-anchor="start" x="10.5879" y="-112.6" font-family="Helvetica,sans-Serif" font-size="8.00">serial_number__part1</text>
<text text-anchor="start" x="91.8887" y="-112.6" font-family="Helvetica,sans-Serif" font-size="8.00"> </text>
<text text-anchor="start" x="97.5254" y="-112.6" font-family="Helvetica,sans-Serif" font-size="8.00">TEXT NOT NULL</text>
<polygon fill="none" stroke="#555555" points="8,-108 8,-158 162,-158 162,-108 8,-108"/>
</g>
<!-- company_38a73c7d -->
<g id="node6" class="node"><title>company_38a73c7d</title>
<polygon fill="white" stroke="none" points="211,-148 211,-210 406,-210 406,-148 211,-148"/>
<polygon fill="#fae096" stroke="none" points="212.5,-197 212.5,-209 324.5,-209 324.5,-197 212.5,-197"/>
<text text-anchor="start" x="214.5" y="-201.6" font-family="Helvetica,sans-Serif" font-weight="bold" font-style="italic" font-size="8.00">company</text>
<polygon fill="#fae096" stroke="none" points="324.5,-197 324.5,-209 405.5,-209 405.5,-197 324.5,-197"/>
<text text-anchor="start" x="381.707" y="-200.6" font-family="Helvetica,sans-Serif" font-size="8.00">[table]</text>
<text text-anchor="start" x="214.5" y="-189.6" font-family="Helvetica,sans-Serif" font-weight="bold" font-style="italic" font-size="8.00">_id</text>
<text text-anchor="start" x="320.389" y="-188.6" font-family="Helvetica,sans-Serif" font-size="8.00"> </text>
<text text-anchor="start" x="326.5" y="-188.6" font-family="Helvetica,sans-Serif" font-size="8.00">INTEGER</text>
<text text-anchor="start" x="214.5" y="-176.6" font-family="Helvetica,sans-Serif" font-size="8.00">company__name</text>
<text text-anchor="start" x="320.389" y="-176.6" font-family="Helvetica,sans-Serif" font-size="8.00"> </text>
<text text-anchor="start" x="326.5" y="-176.6" font-family="Helvetica,sans-Serif" font-size="8.00">TEXT NOT NULL</text>
<text text-anchor="start" x="214.5" y="-164.6" font-family="Helvetica,sans-Serif" font-size="8.00">address</text>
<text text-anchor="start" x="320.389" y="-164.6" font-family="Helvetica,sans-Serif" font-size="8.00"> </text>
<text text-anchor="start" x="326.5" y="-164.6" font-family="Helvetica,sans-Serif" font-size="8.00">TEXT</text>
<text text-anchor="start" x="214.137" y="-152.6" font-family="Helvetica,sans-Serif" font-size="8.00">company__serial_number_id</text>
<text text-anchor="start" x="320.389" y="-152.6" font-family="Helvetica,sans-Serif" font-size="8.00"> </text>
<text text-anchor="start" x="326.398" y="-152.6" font-family="Helvetica,sans-Serif" font-size="8.00">INTEGER NOT NULL</text>
<polygon fill="none" stroke="#555555" points="211,-148 211,-210 406,-210 406,-148 211,-148"/>
</g>
<!-- company_38a73c7d&#45;&gt;serial_number_129efff4 -->
<g id="edge3" class="edge"><title>company_38a73c7d:company__serial_number_id_a5a19a32.start:w&#45;&gt;serial_number_129efff4:_id_aa8c40c0.end:e</title>
<path fill="none" stroke="black" d="M197.263,-152.5C187.529,-148.773 181.626,-141.961 170.036,-139.729"/>
<polygon fill="black" stroke="black" points="203.621,-153.616 210.877,-158.546 207.56,-154.308 211.5,-155 211.5,-155 211.5,-155 207.56,-154.308 212.123,-151.454 203.621,-153.616 203.621,-153.616"/>
<ellipse fill="none" stroke="black" cx="200.469" cy="-153.063" rx="3.2" ry="3.2"/>
<polygon fill="black" stroke="black" points="162.435,-143.056 163.158,-135.089 164.752,-135.233 164.029,-143.201 162.435,-143.056"/>
<polyline fill="none" stroke="black" points="162,-139 165.984,-139.361 "/>
<polygon fill="black" stroke="black" points="166.419,-143.417 167.142,-135.45 168.735,-135.595 168.012,-143.562 166.419,-143.417"/>
<polyline fill="none" stroke="black" points="165.984,-139.361 169.967,-139.723 "/>
</g>
<!-- team_36425d&#45;&gt;serial_number_129efff4 -->
<g id="edge4" class="edge"><title>team_36425d:team__serial_number_id_84527cf4.start:w&#45;&gt;serial_number_129efff4:_id_aa8c40c0.end:e</title>
<path fill="none" stroke="black" d="M441.111,-139.413C432.676,-138.676 426.561,-137.453 414,-137 320.283,-133.617 296.75,-134.715 203,-137 187.896,-137.368 182.202,-138.498 170.33,-138.876"/>
<polygon fill="black" stroke="black" points="447.507,-139.674 455.353,-143.597 451.503,-139.837 455.5,-140 455.5,-140 455.5,-140 451.503,-139.837 455.647,-136.403 447.507,-139.674 447.507,-139.674"/>
<ellipse fill="none" stroke="black" cx="444.309" cy="-139.544" rx="3.2" ry="3.2"/>
<polygon fill="black" stroke="black" points="162.86,-142.988 162.74,-134.988 164.34,-134.965 164.459,-142.964 162.86,-142.988"/>
<polyline fill="none" stroke="black" points="162,-139 166,-138.94 "/>
<polygon fill="black" stroke="black" points="166.859,-142.928 166.74,-134.929 168.34,-134.905 168.459,-142.904 166.859,-142.928"/>
<polyline fill="none" stroke="black" points="166,-138.94 169.999,-138.881 "/>
</g>
<!-- team_36425d&#45;&gt;company_38a73c7d -->
<g id="edge5" class="edge"><title>team_36425d:company_id_8c7384e.start:w&#45;&gt;company_38a73c7d:_id_e1a110c9.end:e</title>
<path fill="none" stroke="black" d="M441.076,-178.477C431.713,-181.972 425.819,-188.16 414.673,-190.271"/>
<polygon fill="black" stroke="black" points="447.615,-177.354 456.109,-179.548 451.558,-176.677 455.5,-176 455.5,-176 455.5,-176 451.558,-176.677 454.891,-172.452 447.615,-177.354 447.615,-177.354"/>
<ellipse fill="none" stroke="black" cx="444.462" cy="-177.896" rx="3.2" ry="3.2"/>
<polygon fill="black" stroke="black" points="407.652,-194.913 406.941,-186.945 408.535,-186.803 409.246,-194.771 407.652,-194.913"/>
<polyline fill="none" stroke="black" points="406.5,-191 410.484,-190.644 "/>
<polygon fill="black" stroke="black" points="411.637,-194.558 410.925,-186.589 412.519,-186.447 413.23,-194.415 411.637,-194.558"/>
<polyline fill="none" stroke="black" points="410.484,-190.644 414.468,-190.289 "/>
</g>
</g>
</svg>
